<svg xmlns="http://www.w3.org/2000/svg" xmlns:xlink="http://www.w3.org/1999/xlink" viewBox="0 0 533 533" width="533" height="533">
  <defs>
    <linearGradient id="otRing" x1="0" y1="0" x2="1" y2="1"><stop offset="0" stop-color="#b026d6"/><stop offset="0.55" stop-color="#7b2bd6"/><stop offset="1" stop-color="#3535ea"/></linearGradient>
    <linearGradient id="otOrbit" x1="0" y1="0" x2="1" y2="1"><stop offset="0" stop-color="#9b27d9"/><stop offset="1" stop-color="#3535ea"/></linearGradient>
    <linearGradient id="otTerm" x1="0" y1="0" x2="1" y2="0"><stop offset="0" stop-color="#9b27d9"/><stop offset="1" stop-color="#3535ea"/></linearGradient>
    <mask id="pm"><rect width="533" height="533" fill="white"/><circle cx="266" cy="186" r="168.0" fill="black"/></mask>
  </defs>
  <g mask="url(#pm)"><path d="M28.5 319.4 L27.3 316.9 L26.5 314.3 L25.9 311.5 L25.6 308.6 L25.7 305.6 L26.0 302.3 L26.6 299.0 L27.5 295.5 L28.7 291.9 L30.1 288.2 L31.9 284.4 L33.9 280.4 L36.3 276.3 L38.9 272.2 L41.8 267.9 L44.9 263.5 L48.4 259.1 L52.0 254.6 L56.0 250.0 L60.2 245.3 L64.7 240.5 L69.4 235.7 L74.3 230.9 L79.5 225.9 L84.9 221.0 L90.5 216.0 L96.4 211.0 M371.8 61.1 L379.3 58.9 L386.6 56.9 L393.8 55.0 L400.8 53.2 L407.7 51.7 L414.4 50.3 L420.9 49.1 L427.2 48.0 L433.4 47.1 L439.3 46.5 L445.0 45.9 L450.5 45.6 L455.7 45.4 L460.8 45.4 L465.6 45.6 L470.1 46.0 L474.4 46.5 L478.5 47.2 L482.3 48.1 L485.8 49.2 L489.1 50.4 L492.1 51.8 L494.8 53.4 L497.2 55.2 L499.4 57.1 L501.2 59.2 L502.8 61.4" fill="none" stroke="url(#otOrbit)" stroke-width="6.5" stroke-linecap="round"/></g>
  <path d="M398.1 121.6 A147 147 0 0 1 162.1 289.9" fill="none" stroke="url(#otRing)" stroke-width="38" stroke-linecap="round"/>
  <path d="M128.8 238.7 A147 147 0 0 1 360.5 73.4" fill="none" stroke="url(#otRing)" stroke-width="38" stroke-linecap="round"/>
  <g fill="none" stroke="#f5f5f7" stroke-width="16.0" stroke-linecap="round" stroke-linejoin="round">
    <path d="M195 138 L250 183 L195 229"/><path d="M266 224 L326 224"/></g>
  <path d="M503.5 62.6 L504.7 65.1 L505.5 67.7 L506.1 70.5 L506.4 73.4 L506.3 76.4 L506.0 79.7 L505.4 83.0 L504.5 86.5 L503.3 90.1 L501.9 93.8 L500.1 97.6 L498.1 101.6 L495.7 105.7 L493.1 109.8 L490.2 114.1 L487.1 118.5 L483.6 122.9 L480.0 127.4 L476.0 132.0 L471.8 136.7 L467.3 141.5 L462.6 146.3 L457.7 151.1 L452.5 156.1 L447.1 161.0 L441.5 166.0 L435.6 171.0 L429.6 176.1 L423.3 181.1 L416.9 186.2 L410.3 191.3 L403.5 196.4 L396.5 201.4 L389.4 206.5 L382.1 211.6 L374.7 216.6 L367.1 221.6 L359.5 226.5 L351.7 231.4 L343.8 236.3 L335.8 241.1 L327.7 245.8 L319.6 250.5 L311.4 255.1 L303.1 259.6 L294.8 264.1 L286.4 268.4 L278.1 272.7 L269.7 276.8 L261.3 280.9 L252.9 284.8 L244.5 288.6 L236.2 292.4 L227.9 295.9 L219.6 299.4 L211.4 302.7 L203.3 305.9 L195.2 309.0 L187.3 311.9 L179.4 314.6 L171.6 317.2 L163.9 319.7 L156.4 322.0 L149.0 324.1 L141.8 326.1 L134.6 327.9 L127.7 329.6 L120.9 331.0 L114.3 332.3 L107.9 333.5 L101.7 334.4 L95.7 335.2 L89.8 335.8 L84.2 336.3 L78.9 336.5 L73.7 336.6 L68.8 336.5 L64.1 336.2 L59.7 335.8 L55.5 335.1 L51.6 334.3 L47.9 333.4 L44.5 332.2 L41.4 330.9 L38.5 329.4 L36.0 327.7 L33.7 325.9 L31.7 323.9 L29.9 321.7 L28.5 319.4" fill="none" stroke="url(#otOrbit)" stroke-width="11.0" stroke-linecap="round"/>
  <circle cx="498.1" cy="101.6" r="21" fill="#A121D9"/>
  <circle cx="33.7" cy="325.9" r="20" fill="#3235F2"/>
  <g fill="#e8e3f0"><path transform="translate(9.50,457.00) scale(0.07500,-0.07500)" d="M188.757080078125 0Q151.80429077148438 0 121.01029968261719 18.108154296875Q90.21630859375 36.21630859375 72.108154296875 67.01029968261719Q54 97.80429077148438 54 134.757080078125V585.242919921875Q54 622.1957092285156 72.108154296875 652.9897003173828Q90.21630859375 683.78369140625 121.01029968261719 701.891845703125Q151.80429077148438 720 188.757080078125 720H639.242919921875Q675.9980697631836 720 706.6273612976074 701.891845703125Q737.2566528320312 683.78369140625 755.6283264160156 652.9897003173828Q774 622.1957092285156 774 585.242919921875V134.757080078125Q774 97.80429077148438 755.6283264160156 67.01029968261719Q737.2566528320312 36.21630859375 706.6273612976074 18.108154296875Q675.9980697631836 0 639.242919921875 0ZM192.44635009765625 120.52789306640625H634.4995727539062Q642.0669555664062 120.52789306640625 647.5060119628906 125.96694946289062Q652.945068359375 131.406005859375 652.945068359375 138.973388671875V581.026611328125Q652.945068359375 588.593994140625 647.5060119628906 594.0330505371094Q642.0669555664062 599.4721069335938 634.4995727539062 599.4721069335938H192.44635009765625Q184.87896728515625 599.4721069335938 179.43991088867188 594.0330505371094Q174.0008544921875 588.593994140625 174.0008544921875 581.026611328125V138.973388671875Q174.0008544921875 131.406005859375 179.43991088867188 125.96694946289062Q184.87896728515625 120.52789306640625 192.44635009765625 120.52789306640625Z"/><path transform="translate(93.69,457.00) scale(0.07500,-0.07500)" d="M638.1751098632812 0 416.87811279296875 263.66180419921875H574.0008544921875L773.108154296875 28.406005859375V0ZM56 0V719H640.7158813476562Q677.6686706542969 719 708.4626617431641 700.6553649902344Q739.2566528320312 682.3107299804688 757.6283264160156 651.6214599609375Q776 620.9321899414062 776 584.242919921875V386.41888427734375Q776 349.7296142578125 757.6283264160156 319.04034423828125Q739.2566528320312 288.35107421875 708.4626617431641 270.0064392089844Q677.6686706542969 251.66180419921875 640.7158813476562 251.66180419921875L176.0008544921875 251.134765625V0ZM194.44635009765625 372.66265869140625H636.4995727539062Q644.0669555664062 372.66265869140625 649.5060119628906 377.865234375Q654.945068359375 383.06781005859375 654.945068359375 390.63519287109375V580.5536499023438Q654.945068359375 588.1210327148438 649.5060119628906 593.5600891113281Q644.0669555664062 598.9991455078125 636.4995727539062 598.9991455078125H194.44635009765625Q186.87896728515625 598.9991455078125 181.43991088867188 593.5600891113281Q176.0008544921875 588.1210327148438 176.0008544921875 580.5536499023438V390.63519287109375Q176.0008544921875 383.06781005859375 181.43991088867188 377.865234375Q186.87896728515625 372.66265869140625 194.44635009765625 372.66265869140625Z"/><path transform="translate(177.65,457.00) scale(0.07500,-0.07500)" d="M59 0V720H614.8240356445312Q651.5791854858398 720 682.2084770202637 701.891845703125Q712.8377685546875 683.78369140625 731.2094421386719 652.9897003173828Q749.5811157226562 622.1957092285156 749.5811157226562 585.242919921875V441.7296142578125Q749.5811157226562 428.25665283203125 747.1351928710938 415.81072998046875Q744.6892700195312 403.36480712890625 739.7433471679688 392.41888427734375Q758.0540771484375 366.79742431640625 768.5270385742188 342.2703857421875Q779 317.74334716796875 779 292.74334716796875V134.757080078125Q779 97.80429077148438 760.6283264160156 67.01029968261719Q742.2566528320312 36.21630859375 711.4626617431641 18.108154296875Q680.6686706542969 0 643.7158813476562 0H59ZM197.44635009765625 120.52789306640625H639.4995727539062Q647.0669555664062 120.52789306640625 652.5060119628906 125.96694946289062Q657.945068359375 131.406005859375 657.945068359375 138.973388671875V288Q657.945068359375 295.5673828125 652.5060119628906 301.0064392089844Q647.0669555664062 306.44549560546875 639.4995727539062 306.44549560546875H197.44635009765625Q189.87896728515625 306.44549560546875 184.43991088867188 301.0064392089844Q179.0008544921875 295.5673828125 179.0008544921875 288V138.973388671875Q179.0008544921875 131.406005859375 184.43991088867188 125.96694946289062Q189.87896728515625 120.52789306640625 197.44635009765625 120.52789306640625ZM197.44635009765625 426.973388671875H610.0806884765625Q617.6480712890625 426.973388671875 622.8506469726562 432.4124450683594Q628.05322265625 437.85150146484375 628.05322265625 445.41888427734375V581.026611328125Q628.05322265625 588.593994140625 622.8506469726562 594.0330505371094Q617.6480712890625 599.4721069335938 610.0806884765625 599.4721069335938H197.44635009765625Q189.87896728515625 599.4721069335938 184.43991088867188 594.0330505371094Q179.0008544921875 588.593994140625 179.0008544921875 581.026611328125V445.41888427734375Q179.0008544921875 437.85150146484375 184.43991088867188 432.4124450683594Q189.87896728515625 426.973388671875 197.44635009765625 426.973388671875Z"/><path transform="translate(262.14,457.00) scale(0.07500,-0.07500)" d="M47.55364990234375 0V720H166.973388671875V0Z"/><path transform="translate(300.27,457.00) scale(0.07500,-0.07500)" d="M319.9725341796875 0V599.4721069335938H20V720H740V599.4721069335938H440.50042724609375V0Z"/><path transform="translate(379.29,457.00) scale(0.07500,-0.07500)" d="M58 0V585.242919921875Q58 622.1957092285156 76.108154296875 652.9897003173828Q94.21630859375 683.78369140625 125.01029968261719 701.891845703125Q155.80429077148438 720 192.757080078125 720H642.7158813476562Q679.6686706542969 720 710.4626617431641 701.891845703125Q741.2566528320312 683.78369140625 759.6283264160156 652.9897003173828Q778 622.1957092285156 778 585.242919921875V0H656.945068359375V246.66180419921875H178.0008544921875V0H58ZM178.0008544921875 367.189697265625H656.945068359375V581.026611328125Q656.945068359375 588.593994140625 651.5060119628906 594.0330505371094Q646.0669555664062 599.4721069335938 638.4995727539062 599.4721069335938H196.44635009765625Q188.87896728515625 599.4721069335938 183.43991088867188 594.0330505371094Q178.0008544921875 588.593994140625 178.0008544921875 581.026611328125V367.189697265625Z"/><path transform="translate(464.07,457.00) scale(0.07500,-0.07500)" d="M57 0V721H177.0008544921875V120.52789306640625H777V0Z"/></g>
  <g fill="url(#otTerm)"><path transform="translate(178.23,513.00) scale(0.04028,-0.04028)" d="M319.9725341796875 0V599.4721069335938H20V720H740V599.4721069335938H440.50042724609375V0Z"/><path transform="translate(223.31,513.00) scale(0.04028,-0.04028)" d="M58 0V720H719.21630859375V599.4721069335938H179.054931640625V420.50042724609375H613.5948486328125V299.49957275390625H179.054931640625V120.52789306640625H719.21630859375V0Z"/><path transform="translate(268.66,513.00) scale(0.04028,-0.04028)" d="M638.1751098632812 0 416.87811279296875 263.66180419921875H574.0008544921875L773.108154296875 28.406005859375V0ZM56 0V719H640.7158813476562Q677.6686706542969 719 708.4626617431641 700.6553649902344Q739.2566528320312 682.3107299804688 757.6283264160156 651.6214599609375Q776 620.9321899414062 776 584.242919921875V386.41888427734375Q776 349.7296142578125 757.6283264160156 319.04034423828125Q739.2566528320312 288.35107421875 708.4626617431641 270.0064392089844Q677.6686706542969 251.66180419921875 640.7158813476562 251.66180419921875L176.0008544921875 251.134765625V0ZM194.44635009765625 372.66265869140625H636.4995727539062Q644.0669555664062 372.66265869140625 649.5060119628906 377.865234375Q654.945068359375 383.06781005859375 654.945068359375 390.63519287109375V580.5536499023438Q654.945068359375 588.1210327148438 649.5060119628906 593.5600891113281Q644.0669555664062 598.9991455078125 636.4995727539062 598.9991455078125H194.44635009765625Q186.87896728515625 598.9991455078125 181.43991088867188 593.5600891113281Q176.0008544921875 588.1210327148438 176.0008544921875 580.5536499023438V390.63519287109375Q176.0008544921875 383.06781005859375 181.43991088867188 377.865234375Q186.87896728515625 372.66265869140625 194.44635009765625 372.66265869140625Z"/><path transform="translate(316.39,513.00) scale(0.04028,-0.04028)" d="M56 0V720H192.82489013671875L462.8377685546875 398.25750732421875L732.3236083984375 720H869.675537109375V0H749.1476440429688V551.5794067382812L462.8377685546875 210.6480712890625L176.0008544921875 551.0523681640625V0Z"/></g><path d="M34.0 499 L64.0 496 L94.0 499 L64.0 502 Z" fill="url(#otTerm)"/><path d="M438.0 499 L468.0 496 L498.0 499 L468.0 502 Z" fill="url(#otTerm)"/>
</svg>