<svg xmlns="http://www.w3.org/2000/svg" viewBox="4 9 524 360" width="524" height="360">
  <defs>
    <linearGradient id="otRing" x1="0" y1="0" x2="1" y2="1"><stop offset="0" stop-color="#b026d6"/><stop offset="0.55" stop-color="#7b2bd6"/><stop offset="1" stop-color="#3535ea"/></linearGradient>
    <linearGradient id="otOrbit" x1="0" y1="0" x2="1" y2="1"><stop offset="0" stop-color="#9b27d9"/><stop offset="1" stop-color="#3535ea"/></linearGradient>
    <mask id="pm"><rect x="-80" y="-80" width="700" height="700" fill="white"/><circle cx="266" cy="186" r="168" fill="black"/></mask>
  </defs>
  <g mask="url(#pm)"><path d="M28.5 319.4 L27.3 316.9 L26.5 314.3 L25.9 311.5 L25.6 308.6 L25.7 305.6 L26.0 302.3 L26.6 299.0 L27.5 295.5 L28.7 291.9 L30.1 288.2 L31.9 284.4 L33.9 280.4 L36.3 276.3 L38.9 272.2 L41.8 267.9 L44.9 263.5 L48.4 259.1 L52.0 254.6 L56.0 250.0 L60.2 245.3 L64.7 240.5 L69.4 235.7 L74.3 230.9 L79.5 225.9 L84.9 221.0 L90.5 216.0 L96.4 211.0 M371.8 61.1 L379.3 58.9 L386.6 56.9 L393.8 55.0 L400.8 53.2 L407.7 51.7 L414.4 50.3 L420.9 49.1 L427.2 48.0 L433.4 47.1 L439.3 46.5 L445.0 45.9 L450.5 45.6 L455.7 45.4 L460.8 45.4 L465.6 45.6 L470.1 46.0 L474.4 46.5 L478.5 47.2 L482.3 48.1 L485.8 49.2 L489.1 50.4 L492.1 51.8 L494.8 53.4 L497.2 55.2 L499.4 57.1 L501.2 59.2 L502.8 61.4" fill="none" stroke="url(#otOrbit)" stroke-width="6.5" stroke-linecap="round"/></g>
  <circle cx="266" cy="186" r="134.0" fill="#0f1117"/>
  <path d="M398.1 121.6 A147 147 0 0 1 162.1 289.9" fill="none" stroke="url(#otRing)" stroke-width="38" stroke-linecap="round"/>
  <path d="M128.8 238.7 A147 147 0 0 1 360.5 73.4" fill="none" stroke="url(#otRing)" stroke-width="38" stroke-linecap="round"/>
  <g fill="none" stroke="#f5f5f7" stroke-width="16.0" stroke-linecap="round" stroke-linejoin="round">
    <path d="M195 138 L250 183 L195 229"/><path d="M266 224 L326 224"/></g>
  <path d="M503.5 62.6 L504.7 65.1 L505.5 67.7 L506.1 70.5 L506.4 73.4 L506.3 76.4 L506.0 79.7 L505.4 83.0 L504.5 86.5 L503.3 90.1 L501.9 93.8 L500.1 97.6 L498.1 101.6 L495.7 105.7 L493.1 109.8 L490.2 114.1 L487.1 118.5 L483.6 122.9 L480.0 127.4 L476.0 132.0 L471.8 136.7 L467.3 141.5 L462.6 146.3 L457.7 151.1 L452.5 156.1 L447.1 161.0 L441.5 166.0 L435.6 171.0 L429.6 176.1 L423.3 181.1 L416.9 186.2 L410.3 191.3 L403.5 196.4 L396.5 201.4 L389.4 206.5 L382.1 211.6 L374.7 216.6 L367.1 221.6 L359.5 226.5 L351.7 231.4 L343.8 236.3 L335.8 241.1 L327.7 245.8 L319.6 250.5 L311.4 255.1 L303.1 259.6 L294.8 264.1 L286.4 268.4 L278.1 272.7 L269.7 276.8 L261.3 280.9 L252.9 284.8 L244.5 288.6 L236.2 292.4 L227.9 295.9 L219.6 299.4 L211.4 302.7 L203.3 305.9 L195.2 309.0 L187.3 311.9 L179.4 314.6 L171.6 317.2 L163.9 319.7 L156.4 322.0 L149.0 324.1 L141.8 326.1 L134.6 327.9 L127.7 329.6 L120.9 331.0 L114.3 332.3 L107.9 333.5 L101.7 334.4 L95.7 335.2 L89.8 335.8 L84.2 336.3 L78.9 336.5 L73.7 336.6 L68.8 336.5 L64.1 336.2 L59.7 335.8 L55.5 335.1 L51.6 334.3 L47.9 333.4 L44.5 332.2 L41.4 330.9 L38.5 329.4 L36.0 327.7 L33.7 325.9 L31.7 323.9 L29.9 321.7 L28.5 319.4" fill="none" stroke="url(#otOrbit)" stroke-width="11" stroke-linecap="round"/>
  <circle cx="498.1" cy="101.6" r="21" fill="#A121D9"/>
  <circle cx="33.7" cy="325.9" r="20" fill="#3235F2"/>
</svg>